<?xml version="1.0" encoding="UTF-8"?>
<svg xmlns="http://www.w3.org/2000/svg" viewBox="0 0 448 512" fill="%230d6efd">
    <path d="M416 0C400 0 384 9.625 376 24L168 176C160 182.4 152 192 152 208V400C152 426.5 126.5 448 96 448C65.5 448 40 426.5 40 400C40 373.5 65.5 352 96 352C106.7 352 116.6 355.9 124.9 362.5L136 339.8V114.7L360 10.66C368 4.25 384 0 400 0C426.5 0 448 21.5 448 48V80C448 106.5 422.5 128 392 128C361.5 128 336 106.5 336 80C336 69.34 339.9 59.38 346.5 51.13L327.9 66.88L152 189.3V208H168V376.7L376 24C384 9.625 400 0 416 0z"/>
</svg>
